<svg xmlns="http://www.w3.org/2000/svg" width="2950" height="91" fill="none"><path fill="#8A01CA" fill-rule="evenodd" d="M1454.31 5.294c5.91-3.811 12.99-4.732 20.27-4.732 7.28 0 14.37.92 20.28 4.732 58.49 37.73 297.77 37.989 839.13 38.572 172.89.186 376.59.406 615.06 1.89-238.47 1.484-442.17 1.703-615.06 1.89-541.36.583-780.64.84-839.13 38.572-5.91 3.81-13 4.732-20.28 4.732-7.28 0-14.36-.921-20.27-4.732-58.49-37.731-297.78-37.989-839.129-38.572-172.892-.187-376.595-.406-615.059-1.89 238.464-1.484 442.167-1.704 615.059-1.89 541.349-.583 780.639-.841 839.129-38.572Zm24.45 11.155h-8.36v25.126h-25.12v8.362h25.12v25.126h8.36V49.936h25.13v-8.362h-25.13V16.45Z" clip-rule="evenodd"/><path fill="#9A978F" d="M1470.4 16.45h8.36v25.125h25.13v8.362h-25.13v25.126h-8.36V49.936h-25.12v-8.362h25.12V16.45Z"/></svg>